<svg xmlns="http://www.w3.org/2000/svg" xmlns:xlink="http://www.w3.org/1999/xlink" width="570" height="468.281" viewBox="0 0 570 468.281">
  <defs>
    <clipPath id="clip-path">
      <rect id="Rectangle_3119" data-name="Rectangle 3119" width="161.563" height="151.895" fill="none"/>
    </clipPath>
    <clipPath id="clip-path-2">
      <rect id="Rectangle_3235" data-name="Rectangle 3235" width="158.747" height="413.349" fill="none"/>
    </clipPath>
    <radialGradient id="radial-gradient" cx="0.5" cy="0.493" r="0.503" gradientTransform="translate(-65.017 -19.904) rotate(-90) scale(1 0.847)" gradientUnits="objectBoundingBox">
      <stop offset="0" stop-color="#b8b8b8" stop-opacity="0.498"/>
      <stop offset="1" stop-color="#7f7f7f" stop-opacity="0"/>
    </radialGradient>
  </defs>
  <g id="Python_App_About" transform="translate(-548.654 -811.924)">
    <g id="Group_296401" data-name="Group 296401">
      <g id="Group_18727" data-name="Group 18727" transform="translate(890.511 838.424)">
        <g id="Group_18726" data-name="Group 18726">
          <g id="Group_18725" data-name="Group 18725">
            <g id="Group_18724" data-name="Group 18724">
              <g id="Group_18723" data-name="Group 18723">
                <path id="Path_9763" data-name="Path 9763" d="M387.651,87.468a23.524,23.524,0,0,1-.3,6.549l4.8,3.732-4.265,9.139-5.94-1.295a22.078,22.078,0,0,1-4.8,4.417l.762,6.016-9.443,3.427-3.275-5.1a23.523,23.523,0,0,1-6.549-.3l-3.732,4.8-9.139-4.265,1.295-5.94a22.078,22.078,0,0,1-4.417-4.8l-6.016.762L333.2,95.16l5.1-3.275a23.522,23.522,0,0,1,.3-6.549l-4.8-3.732,4.265-9.139,5.94,1.295a22.078,22.078,0,0,1,4.8-4.417l-.762-6.016,9.443-3.427,3.275,5.1a23.523,23.523,0,0,1,6.549.3l3.732-4.8,9.139,4.265-1.295,5.94a22.077,22.077,0,0,1,4.417,4.8l6.016-.762,3.427,9.443-5.1,3.275ZM373.258,86.4a10.747,10.747,0,1,0-.31,8.263,10.794,10.794,0,0,0,.31-8.263Z" transform="translate(-333.2 -59.9)" fill="#7cb4e2" fill-rule="evenodd"/>
              </g>
            </g>
          </g>
        </g>
      </g>
      <g id="Group_18727-2" data-name="Group 18727" transform="translate(866.511 811.924)" opacity="0.24">
        <g id="Group_18726-2" data-name="Group 18726">
          <g id="Group_18725-2" data-name="Group 18725">
            <g id="Group_18724-2" data-name="Group 18724">
              <g id="Group_18723-2" data-name="Group 18723">
                <path id="Path_9763-2" data-name="Path 9763" d="M366.164,76.59a14.242,14.242,0,0,1-.184,3.965l2.9,2.259L366.3,88.346l-3.6-.784a13.366,13.366,0,0,1-2.9,2.674l.461,3.642-5.717,2.075-1.982-3.089a14.241,14.241,0,0,1-3.965-.184l-2.259,2.9L340.807,93l.784-3.6a13.366,13.366,0,0,1-2.674-2.9l-3.642.461L333.2,81.246l3.089-1.982a14.24,14.24,0,0,1,.184-3.965l-2.9-2.259,2.582-5.532,3.6.784a13.367,13.367,0,0,1,2.9-2.674l-.461-3.642,5.717-2.075,1.982,3.089a14.241,14.241,0,0,1,3.965.184l2.259-2.9,5.533,2.582-.784,3.6a13.365,13.365,0,0,1,2.674,2.9l3.642-.461,2.075,5.717-3.089,1.982Zm-8.714-.645a6.506,6.506,0,1,0-.188,5,6.535,6.535,0,0,0,.188-5Z" transform="translate(-333.2 -59.9)" fill="#7cb4e2" fill-rule="evenodd"/>
              </g>
            </g>
          </g>
        </g>
      </g>
      <g id="Group_18727-3" data-name="Group 18727" transform="translate(950.511 842.924)" opacity="0.24">
        <g id="Group_18726-3" data-name="Group 18726">
          <g id="Group_18725-3" data-name="Group 18725">
            <g id="Group_18724-3" data-name="Group 18724">
              <g id="Group_18723-3" data-name="Group 18723">
                <path id="Path_9763-3" data-name="Path 9763" d="M366.164,76.59a14.242,14.242,0,0,1-.184,3.965l2.9,2.259L366.3,88.346l-3.6-.784a13.366,13.366,0,0,1-2.9,2.674l.461,3.642-5.717,2.075-1.982-3.089a14.241,14.241,0,0,1-3.965-.184l-2.259,2.9L340.807,93l.784-3.6a13.366,13.366,0,0,1-2.674-2.9l-3.642.461L333.2,81.246l3.089-1.982a14.24,14.24,0,0,1,.184-3.965l-2.9-2.259,2.582-5.532,3.6.784a13.367,13.367,0,0,1,2.9-2.674l-.461-3.642,5.717-2.075,1.982,3.089a14.241,14.241,0,0,1,3.965.184l2.259-2.9,5.533,2.582-.784,3.6a13.365,13.365,0,0,1,2.674,2.9l3.642-.461,2.075,5.717-3.089,1.982Zm-8.714-.645a6.506,6.506,0,1,0-.188,5,6.535,6.535,0,0,0,.188-5Z" transform="translate(-333.2 -59.9)" fill="#7cb4e2" fill-rule="evenodd"/>
              </g>
            </g>
          </g>
        </g>
      </g>
      <g id="Group_296400" data-name="Group 296400">
        <g id="Hire_Swift_about" transform="translate(335 -2335)">
          <g id="Group_250600" data-name="Group 250600">
            <g id="Group_250593" data-name="Group 250593" transform="translate(254.442 3191.937)">
              <path id="Path_86902" data-name="Path 86902" d="M180.753,73.232H33.309A30.661,30.661,0,0,0,2.683,103.858V456.752c0,16.887,13.74,31.188,30.626,31.188H180.753c16.887,0,30.626-14.3,30.626-31.188V103.858a30.66,30.66,0,0,0-30.626-30.626M202.38,458.588A21.01,21.01,0,0,1,181.367,479.6H32.579a21.011,21.011,0,0,1-21.011-21.011v-355.6A21.011,21.011,0,0,1,32.579,81.973h17.45a3.715,3.715,0,0,1,3.715,3.715v.443a11.1,11.1,0,0,0,11.1,11.1H149.11a11.1,11.1,0,0,0,11.095-11.094v-.445a3.713,3.713,0,0,1,3.713-3.715h17.45a21.011,21.011,0,0,1,21.012,21.01Z" transform="translate(126.389 -68.96)" fill="#1978a7"/>
              <path id="Path_86903" data-name="Path 86903" d="M182.339,70.548H34.9A34.9,34.9,0,0,0,0,105.444V458.338a34.9,34.9,0,0,0,34.9,34.9H182.339a34.9,34.9,0,0,0,34.9-34.9v-352.9a34.9,34.9,0,0,0-34.9-34.9m30.626,387.79c0,16.887-13.738,31.188-30.626,31.188H34.9c-16.887,0-30.626-14.3-30.626-31.188V105.446A30.662,30.662,0,0,1,34.9,74.819H182.339a30.662,30.662,0,0,1,30.626,30.628Z" transform="translate(124.802 -70.548)" fill="#1978a7"/>
              <path id="Path_86904" data-name="Path 86904" d="M178.067,78.728h-17.45a3.715,3.715,0,0,0-3.715,3.715v.443a11.1,11.1,0,0,1-11.1,11.1H61.538a11.1,11.1,0,0,1-11.1-11.1v-.443a3.715,3.715,0,0,0-3.715-3.715H29.277A21.01,21.01,0,0,0,8.266,99.739v355.6A21.01,21.01,0,0,0,29.278,476.35H178.067a21.01,21.01,0,0,0,21.011-21.012V99.739a21.01,21.01,0,0,0-21.012-21.011" transform="translate(129.69 -65.71)" fill="#d6e7f5"/>
              <path id="Path_86905" data-name="Path 86905" d="M80.739,82.895a3.37,3.37,0,1,1,3.37,3.371,3.37,3.37,0,0,1-3.37-3.371" transform="translate(172.549 -65.239)" fill="#c5c5ff"/>
              <path id="Path_86906" data-name="Path 86906" d="M84.615,84.188H61.579a1.83,1.83,0,1,1,0-3.66H84.615a1.83,1.83,0,1,1,0,3.66" transform="translate(160.138 -64.645)" fill="#231f20"/>
              <path id="Path_86907" data-name="Path 86907" d="M84.615,84.188H61.579a1.83,1.83,0,1,1,0-3.66H84.615a1.83,1.83,0,1,1,0,3.66" transform="translate(160.138 -64.645)" fill="#c5c5ff"/>
              <g id="Group_39283" data-name="Group 39283" transform="translate(154.256 63.274)">
                <g id="Group_39282" data-name="Group 39282">
                  <g id="Group_39281" data-name="Group 39281" clip-path="url(#clip-path)">
                    <path id="Path_86908" data-name="Path 86908" d="M167.63,262.2H30.951A12.441,12.441,0,0,1,18.509,249.76V122.75a12.441,12.441,0,0,1,12.443-12.442H167.63a12.441,12.441,0,0,1,12.445,12.442V249.762A12.441,12.441,0,0,1,167.632,262.2" transform="translate(-18.509 -110.308)" fill="#e8eefe"/>
                  </g>
                </g>
              </g>
              <path id="Path_86911" data-name="Path 86911" d="M165.651,260.063H28.972A12.441,12.441,0,0,1,16.53,247.621V120.61a12.441,12.441,0,0,1,12.443-12.442H165.651a12.441,12.441,0,0,1,12.442,12.443V247.622a12.441,12.441,0,0,1-12.443,12.442" transform="translate(134.577 -48.3)" fill="#fff"/>
              <path id="Path_86912" data-name="Path 86912" d="M120.874,174.079H80.309a9.063,9.063,0,0,1-9.062-9.061V124.451a9.063,9.063,0,0,1,9.061-9.062h40.565a9.063,9.063,0,0,1,9.062,9.061v40.565a9.063,9.063,0,0,1-9.061,9.062" transform="translate(166.935 -44.029)" fill="#dce7fd"/>
              <path id="Path_86913" data-name="Path 86913" d="M95.808,139.534,80.2,128.018a2.125,2.125,0,0,1,1.257-.422h28.7a2.1,2.1,0,0,1,1.254.422Zm3.677-.734,10.671,6.421a.8.8,0,1,1-.823,1.368L98.1,139.823l-1.821,1.344a.8.8,0,0,1-.947,0l-1.821-1.344L82.274,146.59a.8.8,0,0,1-.821-1.368L92.122,138.8l-12.76-9.418a2.142,2.142,0,0,0-.032.337v15.585a2.13,2.13,0,0,0,2.123,2.128h28.7a2.132,2.132,0,0,0,2.125-2.128V129.721a2.141,2.141,0,0,0-.033-.337Z" transform="translate(171.72 -36.811)" fill="#7cb4e2"/>
              <path id="Path_86914" data-name="Path 86914" d="M76.082,218.206H35.52a9.064,9.064,0,0,1-9.065-9.063V168.578a9.063,9.063,0,0,1,9.063-9.062H76.082a9.062,9.062,0,0,1,9.062,9.062v40.564a9.062,9.062,0,0,1-9.062,9.062" transform="translate(140.447 -17.934)" fill="#dce7fd"/>
              <path id="Path_86914-2" data-name="Path 86914" d="M76.082,218.206H35.52a9.064,9.064,0,0,1-9.065-9.063V168.578a9.063,9.063,0,0,1,9.063-9.062H76.082a9.062,9.062,0,0,1,9.062,9.062v40.564a9.062,9.062,0,0,1-9.062,9.062" transform="translate(140.447 -87.934)" fill="#dce7fd"/>
              <path id="Path_86915" data-name="Path 86915" d="M48.651,168.137a10.1,10.1,0,0,0-10.1,10.1c0,5.578,10.1,21.148,10.1,21.148s10.1-15.57,10.1-21.149a10.1,10.1,0,0,0-10.1-10.1m0,14.377a4.274,4.274,0,1,1,4.274-4.274,4.274,4.274,0,0,1-4.274,4.274" transform="translate(147.598 -12.836)" fill="#7cb4e2"/>
              <path id="Path_86916" data-name="Path 86916" d="M120.874,218.206H80.309a9.063,9.063,0,0,1-9.062-9.061V168.578a9.063,9.063,0,0,1,9.061-9.062h40.565a9.063,9.063,0,0,1,9.062,9.061v40.565a9.063,9.063,0,0,1-9.061,9.062" transform="translate(166.935 -17.934)" fill="#dce7fd"/>
              <path id="Path_86917" data-name="Path 86917" d="M97.029,173.893l11.826,13.3a.673.673,0,0,1,.17.447v13.768a.672.672,0,0,1-.672.672h-6.588a.672.672,0,0,1-.672-.672v-10.7a.672.672,0,0,0-.673-.672H92.631a.672.672,0,0,0-.673.672v10.7a.672.672,0,0,1-.672.672H84.7a.672.672,0,0,1-.672-.672V187.644a.673.673,0,0,1,.17-.447l11.826-13.3a.673.673,0,0,1,1.006,0m.524-6.552a1.419,1.419,0,0,0-2.053,0L78.125,186.887H81.8l14.726-16.565,14.725,16.565h3.676Z" transform="translate(171.003 -13.566)" fill="#7cb4e2"/>
              <path id="Path_86918" data-name="Path 86918" d="M165.651,374.884H28.972A12.441,12.441,0,0,1,16.53,362.441V232.006a12.441,12.441,0,0,1,12.443-12.442H165.651a12.441,12.441,0,0,1,12.442,12.443V362.443a12.441,12.441,0,0,1-12.443,12.442" transform="translate(134.577 17.578)" fill="#fff"/>
              <rect id="Rectangle_3125" data-name="Rectangle 3125" width="3.271" height="132.27" transform="translate(296.8 334.712) rotate(90)" fill="#b2c7f2"/>
              <rect id="Rectangle_3231" data-name="Rectangle 3231" width="3.271" height="132.27" transform="translate(296.8 345.427) rotate(90)" fill="#b2c7f2"/>
              <rect id="Rectangle_3231-2" data-name="Rectangle 3231" width="3.271" height="132.27" transform="translate(296.8 302.427) rotate(90)" fill="#b2c7f2"/>
              <rect id="Rectangle_3232" data-name="Rectangle 3232" width="3.271" height="132.27" transform="translate(296.8 356.141) rotate(90)" fill="#b2c7f2"/>
              <rect id="Rectangle_3232-2" data-name="Rectangle 3232" width="3.271" height="132.27" transform="translate(296.8 313.141) rotate(90)" fill="#b2c7f2"/>
              <rect id="Rectangle_3233" data-name="Rectangle 3233" width="3.271" height="132.27" transform="translate(296.8 366.855) rotate(90)" fill="#b2c7f2"/>
              <rect id="Rectangle_3233-2" data-name="Rectangle 3233" width="3.271" height="132.27" transform="translate(296.8 323.855) rotate(90)" fill="#b2c7f2"/>
              <rect id="Rectangle_3234" data-name="Rectangle 3234" width="3.271" height="77.626" transform="translate(242.156 377.57) rotate(90)" fill="#b2c7f2"/>
              <g id="Group_39428" data-name="Group 39428" transform="translate(0 9.34)">
                <g id="Group_39427" data-name="Group 39427" clip-path="url(#clip-path-2)">
                  <path id="Path_87193" data-name="Path 87193" d="M37.84,164.838s-.987,3.01,8.242,7.222,18.965,2.724,21.362,6.258a19.385,19.385,0,0,1,2.948,6.889H17.89s.4-14.5,6.342-20.933c-.758,1.383,13.607.564,13.607.564" transform="translate(45.626 228.146)" fill="#4479fa"/>
                  <path id="Path_87194" data-name="Path 87194" d="M61.534,164.811s-.948,2.893,7.929,6.942S87.7,174.374,90,177.773a18.576,18.576,0,0,1,2.833,6.622H42.35s.383-13.939,6.1-20.126c-.729,1.331,13.086.542,13.086.542" transform="translate(-35.253 228.146)" fill="#4479fa"/>
                  <path id="Path_87195" data-name="Path 87195" d="M0,80.352l38.121,6.7L64.93,29.663,23.88,26.311Z" transform="translate(93.813 36.542)" fill="#60a6df"/>
                  <path id="Path_87196" data-name="Path 87196" d="M7.255,46.506a.045.045,0,0,0-.031,0c.132.058.15.062.031,0" transform="translate(134.156 64.585)" fill="#262845"/>
                  <path id="Path_87197" data-name="Path 87197" d="M68.8,6.338s5.026,10.055,5.026,19.271c0,6.443-.816,15.75-1.311,20.769a2.893,2.893,0,0,1-3.737,2.489l-7.521-2.312.42,10.89-20.972-.363L36.128,13.045s17.594-19.271,32.679-6.7" transform="translate(-1.376 2.893)" fill="#ffc2a6"/>
                  <path id="Path_87198" data-name="Path 87198" d="M70.4,32.358s-1.179-8.722-7.756-6.916.964,10.607.964,10.607L57.322,47.358a19.305,19.305,0,0,1-14.663-.429S35.676,25.7,35.676,19,41.788,7.779,41.788,7.779,58.16-.4,66.956.015,76.593,9.23,76.593,9.23s3.352,6.7,0,9.637S70.4,32.358,70.4,32.358" transform="translate(-4.562 -0.001)" fill="#2d2a30"/>
                  <path id="Path_87199" data-name="Path 87199" d="M40.918,22.589l.946,6.06,21.677.084s-4.19-6.7-22.623-6.144" transform="translate(-2.541 31.327)" fill="#6aa5cc"/>
                  <path id="Path_87200" data-name="Path 87200" d="M4.679,55.737S3.162,50.986,9.287,48.2c-.158-1.115,1.226-6.677,2.513-7.96s2.095,5.865,2.095,5.865,6-10.683,7.542-7.96S7.89,61.882,7.471,62.719s-2.792-6.983-2.792-6.983" transform="translate(126.419 52.359)" fill="#ffc2a6"/>
                  <path id="Path_87201" data-name="Path 87201" d="M92.6,74.615,107.123,197.5l-2.945,95.252L85.9,291.442s-5.168-50.1-5.583-62.665,3.352-31.838,3.352-31.838L65.237,120.972l-3.065.559-.851,74.844L44.528,291.444l-15.365.74s-.38-49.024.876-61.174,7.822-36.447,7.822-36.447l-6.7-77.5s-6.7-20.387,5.306-43.287c1.536.141,56.136.839,56.136.839" transform="translate(-17.919 102.465)" fill="#0a2033"/>
                  <path id="Path_87202" data-name="Path 87202" d="M70.117,25.191s25.971,8.373,30.721,13.126S119.2,92,119.2,92l20.521-20.561,6.359,14.914s-24.018,35.747-31.556,36.864S89.945,77.971,89.945,77.971,88.4,103.3,85.477,115.959A79.2,79.2,0,0,0,83.8,142.209c-23.243,4.218-43.011,3.352-56.136-.839l-6.5-48.79s-8.856,1.034-11.648-2.036S19.567,36.922,22.359,33.008s26.084-7.9,26.084-7.9Z" transform="translate(-9.117 34.87)" fill="#7cb4e2"/>
                  <path id="Path_87203" data-name="Path 87203" d="M50.993,39.552c.138-.991,1.778-.75,1.739.237-.777,21-.07,41.465,3.229,62.252.22,1.393-1.854,2.036-2.164.595a181.126,181.126,0,0,1-2.8-63.083" transform="translate(-15.285 54.052)" fill="#6aa5cc"/>
                  <path id="Path_87204" data-name="Path 87204" d="M58.727,45.954c.141-.7,1.206-.516,1.218.165a207.889,207.889,0,0,0,4.072,36.046c2.067,10.7,3.958,21.42,3.266,32.364-.1,1.531-2.464,1.555-2.4,0,.53-12.643-2.036-24.847-4.34-37.2-1.908-10.262-3.882-20.987-1.809-31.37" transform="translate(-46.854 63.205)" fill="#6aa5cc"/>
                  <path id="Path_87205" data-name="Path 87205" d="M22.766,45.589C29.739,50.02,32.358,58.7,35.028,66.078c3.612,9.986,7.222,19.8,15.086,27.29,1.173,1.115-.575,2.838-1.766,1.768C33.827,82.064,34.517,60.7,22.133,46.408c-.368-.429.107-1.156.633-.82" transform="translate(55.684 63.197)" fill="#6aa5cc"/>
                  <path id="Path_87206" data-name="Path 87206" d="M36.866,73.555s35.193,4.469,56.415-2.234c-.559,0,0,6.7,0,6.7S66.223,88.177,35.189,80.258c.249-.1,1.677-6.7,1.677-6.7" transform="translate(-18.596 99.054)" fill="#7cb4e2"/>
                </g>
              </g>
            </g>
            <g id="Group_250595" data-name="Group 250595">
              <g id="Component_32_5" data-name="Component 32 – 5" transform="translate(213.654 3614.705)">
                <path id="Path_87110" data-name="Path 87110" d="M0,0H570" transform="translate(0 0)" fill="none" stroke="#222" stroke-width="1"/>
              </g>
            </g>
            <g id="Group_247885" data-name="Group 247885" transform="translate(603.18 3211.519)">
              <path id="Path_104289" data-name="Path 104289" d="M1747.118,1114.9c-8.208-2.726-13.89.714-13.89.714-23.632.971-24.51,25.194-21.736,34.209,3.9,12.661-9.891,22.645,5.4,27.769,17.741,5.945,32.628-1.108,31.612,1.954C1804.609,1183.962,1765.785,1121.094,1747.118,1114.9Z" transform="translate(-1675.593 -1113.844)" fill="#2d2a30"/>
              <path id="Path_104290" data-name="Path 104290" d="M1705.141,1287.728a61.978,61.978,0,0,1-6.319,9.556c-4.908,6.149-30.675-8.446-28.455-9.556s15.167-38.411,18.25-43.1,13.591-7.121,13.591-7.121Z" transform="translate(-1658.127 -1168.861)" fill="#fec35b"/>
              <path id="Path_104291" data-name="Path 104291" d="M1869.109,1778.72s7.111,6.49,5.724,11.1-7.806,7.685-8.673,13.322-4.336,8.71-7.458,8.71h-14.886s-2.3-3.967,3.253-5.162,7.643-7.819,7.3-13.967a108.326,108.326,0,0,1,.521-14.347l11.795-2.732Z" transform="translate(-1735.143 -1408.273)" fill="#1f447f"/>
              <path id="Path_104292" data-name="Path 104292" d="M1748.848,1786.147s2.559,27.5-.563,29.032l-39.957-.082s0-4.612,6.418-5.636,17.692-4.783,19.6-13.152S1748.848,1786.147,1748.848,1786.147Z" transform="translate(-1675.076 -1412.945)" fill="#1c3154"/>
              <path id="Path_104293" data-name="Path 104293" d="M1778.837,1267.44a158.948,158.948,0,0,1,0,18.469c-.4,6.677-7.15,15.621-8.108,17.834-2.4,5.549-5.117,6.452-5.117,6.452l-20.979,5.142-7.377,1.805-23.262-6.947s-10.595-29.573-6.341-46.221a127.917,127.917,0,0,1,10.755-28.208s15.808-3.554,43.7-1.576Z" transform="translate(-1674.327 -1167.118)" fill="#fec35b"/>
              <path id="Path_104294" data-name="Path 104294" d="M1808.244,1313.764c-.4,6.677-9.148,15.388-10.107,17.6-2.405,5.549-5.117,6.452-5.117,6.452l-20.979,5.142-3.788-10.857s30.654-8.052,25.723-36.424Z" transform="translate(-1701.736 -1194.74)" fill="#fcba45"/>
              <path id="Path_104295" data-name="Path 104295" d="M1712.709,1379.674s-11.52,35.857-12.26,48.065,22.021,173.427,22.937,179.052c.863,5.3,7.447,8.682,7.447,8.682a9.963,9.963,0,0,0,7.351.566c6-1.693,7.891-3.72,7.891-3.72s8.967-114.98,3.418-156.054a650.478,650.478,0,0,1-5.615-76.592Z" transform="translate(-1671.562 -1232.109)" fill="#2d384d"/>
              <path id="Path_104296" data-name="Path 104296" d="M1774.4,1377.748s17.573,23.578,19.21,39.516,2.57,71.922,6.06,87.46,16.313,45.439,16.313,93.9a9.668,9.668,0,0,1-5.448,4.257,44.866,44.866,0,0,1-4.792,1.325,7.533,7.533,0,0,1-8.425-4c-8.669-17.455-36.284-73.751-37.7-85.437-1-8.27-9.721-63-28.741-95.121-4.566-7.71,2.8-38.374,2.8-38.374Z" transform="translate(-1684.442 -1231.252)" fill="#2d384d"/>
              <path id="Path_104297" data-name="Path 104297" d="M1718.709,1369.7s4.625,3.658,13.812,3.844c10.974.22,38.166-2.8,38.166-2.8a22.484,22.484,0,0,1,1.159,6.94s-33.211,8.377-52.453,1.223C1719.393,1378.911,1716.911,1374.242,1718.709,1369.7Z" transform="translate(-1679.404 -1227.673)" fill="#233862"/>
              <g id="Group_247879" data-name="Group 247879" transform="translate(45.478 143.994)">
                <path id="Path_104298" data-name="Path 104298" d="M1735.359,1384.577c-2.761,0-5.007-2.542-5.007-5.667s2.246-5.668,5.007-5.668,5.008,2.542,5.008,5.668S1738.12,1384.577,1735.359,1384.577Zm0-9.675c-1.845,0-3.348,1.8-3.348,4.008s1.5,4.007,3.348,4.007,3.347-1.8,3.347-4.007S1737.205,1374.9,1735.359,1374.9Z" transform="translate(-1730.352 -1373.242)" fill="#fff"/>
              </g>
              <path id="Path_104299" data-name="Path 104299" d="M1722.9,1365.971l-49.915.467-24.562-57.724,49.915-.466Z" transform="translate(-1648.426 -1200.332)" fill="#1978a7"/>
              <path id="Path_104300" data-name="Path 104300" d="M1750.311,1357.92l-3.659-4.5s-2.477-2.209-4.272-2.584-5.591-2.563-5.959-1.947,2.916,5.016,2.916,5.016l.166.023c-3.769,2.834-13.283.332-14.458,1.489-1.423,1.4,1.96,4.431,3.775,6.132s7,4.537,11.051,3.278c2.958-.921,7.613-1.857,7.613-1.857Z" transform="translate(-1682.361 -1218.366)" fill="#ffb27d"/>
              <path id="Path_104301" data-name="Path 104301" d="M1654.933,1325.523s3.137-3.565,5.134-1.854-.524,10.124-2.425,9.268S1653.84,1326.568,1654.933,1325.523Z" transform="translate(-1651.178 -1206.986)" fill="#ffb27d"/>
              <path id="Path_104302" data-name="Path 104302" d="M1786.242,1234.67s14.289,1.576,24.543,20.207c8.086,14.692,21.911,41.778,16.694,49.429-2.29,3.36-24.241,15.311-66.58,8.48,0,0,.667-5.348,4.082-7.827,0,0,35.631-11.44,35.57-13.715-.116-4.3-4.815-8.024-24.718-27.933C1770.423,1257.9,1786.242,1234.67,1786.242,1234.67Z" transform="translate(-1698.464 -1167.598)" fill="#fec35b"/>
              <path id="Path_104303" data-name="Path 104303" d="M1769.447,1218.52c.491-.659-.141-2.759-.926-6.667a73,73,0,0,1-1.89-15.181l-1.053.177-17.71,2.979s.4,4.735.415,9.2c0,.037,0,.074,0,.111.022,3.874-1.045,9.729.261,10.494C1755.254,1223.561,1767.558,1221.056,1769.447,1218.52Z" transform="translate(-1692.666 -1150.693)" fill="#ffb27d"/>
              <path id="Path_104304" data-name="Path 104304" d="M1747.867,1199.969s.353,6.678.364,11.138c9.91-.237,15.2-9.86,17.346-14.117Z" transform="translate(-1692.666 -1150.835)" fill="#e8945b"/>
              <path id="Path_104305" data-name="Path 104305" d="M1736.2,1183.886s23.216-3.307,20.934-17.733-.822-24.569-15.741-23.068-16.922,7.461-17.332,12.461S1730.1,1184.373,1736.2,1183.886Z" transform="translate(-1682.066 -1126.787)" fill="#ffb27d"/>
              <path id="Path_104306" data-name="Path 104306" d="M1736.2,1142.388s9.036,15.911,19.164,16.864,13.933-2.328,13.933-2.328a27.9,27.9,0,0,1-11.6-14.842S1739.7,1133.572,1736.2,1142.388Z" transform="translate(-1687.474 -1124.764)" fill="#2d2a30"/>
              <path id="Path_104307" data-name="Path 104307" d="M1730.942,1145.89s-4.421,2.507-5.81,6.243a23.607,23.607,0,0,0-1.021,13.74s-6.609-10.74-2.277-18.1C1726.427,1139.965,1730.942,1145.89,1730.942,1145.89Z" transform="translate(-1680.429 -1127.143)" fill="#2d2a30"/>
            </g>
          </g>
        </g>
      </g>
      <g id="Group_18727-4" data-name="Group 18727" transform="translate(770.511 943.424)">
        <g id="Group_18726-4" data-name="Group 18726">
          <g id="Group_18725-4" data-name="Group 18725">
            <g id="Group_18724-4" data-name="Group 18724">
              <g id="Group_18723-4" data-name="Group 18723">
                <path id="Path_9763-4" data-name="Path 9763" d="M358.847,72.885a11.08,11.08,0,0,1-.143,3.085l2.26,1.758-2.009,4.3-2.8-.61a10.4,10.4,0,0,1-2.26,2.08l.359,2.834-4.448,1.614-1.542-2.4a11.079,11.079,0,0,1-3.085-.143l-1.758,2.26-4.3-2.009.61-2.8a10.4,10.4,0,0,1-2.08-2.26l-2.834.359L333.2,76.507l2.4-1.542a11.079,11.079,0,0,1,.143-3.085l-2.26-1.758,2.009-4.3,2.8.61a10.4,10.4,0,0,1,2.26-2.08l-.359-2.834,4.448-1.614,1.542,2.4a11.079,11.079,0,0,1,3.085.143l1.758-2.26,4.3,2.009-.61,2.8a10.4,10.4,0,0,1,2.08,2.26l2.834-.359,1.614,4.448-2.4,1.542Zm-6.779-.5a5.062,5.062,0,1,0-.146,3.892A5.084,5.084,0,0,0,352.067,72.383Z" transform="translate(-333.2 -59.9)" fill="#7cb4e2" fill-rule="evenodd"/>
              </g>
            </g>
          </g>
        </g>
      </g>
    </g>
    <g id="g2303" transform="translate(762.204 1112.459)">
      <path id="path46" d="M430.2,383.151c0-3.784-1.086-5.707-3.226-5.831a6.289,6.289,0,0,0-2.512.4,3.923,3.923,0,0,0-1.334.713v9.026a6.437,6.437,0,0,0,3.66,1.21C429.082,388.517,430.2,386.656,430.2,383.151Zm2.667.155a7.841,7.841,0,0,1-1.365,4.777,5.042,5.042,0,0,1-4.187,2.233,7.6,7.6,0,0,1-4.187-1.272v8.22l-2.326-.806V378.25a5.148,5.148,0,0,1,1.458-1.21,10.125,10.125,0,0,1,5.025-1.241l.031.031a4.541,4.541,0,0,1,4.156,2.233A8.672,8.672,0,0,1,432.866,383.306Z" transform="translate(-383.711 -367.891)" fill="#646464"/>
      <path id="path48" d="M479.431,388.6c0,2.574-.248,4.373-.775,5.335a5.559,5.559,0,0,1-2.978,2.388,11.765,11.765,0,0,1-3.815.775l-.4-1.458a18.448,18.448,0,0,0,2.947-.558,3.956,3.956,0,0,0,2.326-1.737,8.885,8.885,0,0,0,.5-3.66V389.1a11.92,11.92,0,0,1-4.963,1.086,4.5,4.5,0,0,1-3.009-1.086,3.672,3.672,0,0,1-1.458-2.978v-9.615l2.326-.806v9.708a3,3,0,0,0,.993,2.388,3.909,3.909,0,0,0,2.605.806,6.583,6.583,0,0,0,3.412-1.241V376.041h2.326l-.031,12.562Z" transform="translate(-416.133 -367.822)" fill="#646464"/>
      <path id="path50" d="M519.914,380.465a6.75,6.75,0,0,1-.775.031,4.654,4.654,0,0,1-3.071-.931,3.279,3.279,0,0,1-1.086-2.605v-9.119H513.4v-1.458h1.582v-3.877l2.3-.806v4.684h2.605v1.458h-2.574V376.9a2.147,2.147,0,0,0,.713,1.83,3.554,3.554,0,0,0,1.892.5v1.241Z" transform="translate(-447.589 -358.164)" fill="#646464"/>
      <path id="path52" d="M554.49,372.384h-2.326v-8.933a3.959,3.959,0,0,0-.651-2.326,2.321,2.321,0,0,0-2.016-1.117,7.482,7.482,0,0,0-3.97,1.675v10.7H543.2V351.013l2.326-.713v9.708a8.052,8.052,0,0,1,4.87-1.613,3.776,3.776,0,0,1,2.978,1.241,4.289,4.289,0,0,1,1.148,3.071l-.031,9.677Z" transform="translate(-468.146 -350.3)" fill="#646464"/>
      <path id="path54" d="M596.743,382.572a7.268,7.268,0,0,0-.806-3.6,3.476,3.476,0,0,0-3.04-1.83c-2.543.155-3.815,1.985-3.815,5.428a8.6,8.6,0,0,0,.806,4,3.249,3.249,0,0,0,3.071,2.016C595.471,388.589,596.743,386.573,596.743,382.572Zm2.543,0a8.3,8.3,0,0,1-1.582,5.18,6.118,6.118,0,0,1-9.553,0,8.423,8.423,0,0,1-1.551-5.18,7.423,7.423,0,0,1,1.675-4.932,6.161,6.161,0,0,1,9.336,0A7.711,7.711,0,0,1,599.286,382.572Z" transform="translate(-498.085 -367.684)" fill="#646464"/>
      <path id="path56" d="M645.228,389.975H642.9v-9.429a3.178,3.178,0,0,0-.93-2.419,3.346,3.346,0,0,0-2.512-.837,5.549,5.549,0,0,0-3.133,1.086v11.631H634V378.1a11.174,11.174,0,0,1,3.66-1.892,10.994,10.994,0,0,1,2.792-.4,7.96,7.96,0,0,1,1.551.155,4.438,4.438,0,0,1,2.233,1.179,3.046,3.046,0,0,1,.962,2.3l.031,10.546Z" transform="translate(-530.782 -367.891)" fill="#646464"/>
      <path id="path1948" d="M315.485,352.987a19,19,0,0,0-3.35.279c-2.916.5-3.474,1.613-3.474,3.6v2.667h6.979v.868h-9.584a4.372,4.372,0,0,0-4.342,3.536,13.04,13.04,0,0,0,0,7.072c.5,2.078,1.675,3.536,3.722,3.536h2.388v-3.195a4.438,4.438,0,0,1,4.342-4.342h6.979a3.548,3.548,0,0,0,3.5-3.536v-6.638a3.935,3.935,0,0,0-3.5-3.629A24.64,24.64,0,0,0,315.485,352.987ZM311.7,355.1a1.317,1.317,0,0,1,1.3,1.334,1.338,1.338,0,0,1-1.3,1.334,1.317,1.317,0,0,1-1.3-1.334A1.338,1.338,0,0,1,311.7,355.1Z" transform="translate(-301.225 -352.149)" fill="#5a9fd4"/>
      <path id="path1950" d="M340,376.9V380a4.45,4.45,0,0,1-4.342,4.4H328.7a3.569,3.569,0,0,0-3.5,3.536v6.638c0,1.892,1.644,3.009,3.5,3.536a11.619,11.619,0,0,0,6.979,0c1.768-.5,3.5-1.52,3.5-3.536v-2.667H332.21v-.868h10.484c2.016,0,2.761-1.4,3.5-3.536a11.9,11.9,0,0,0,0-7.072c-.5-2.016-1.458-3.536-3.5-3.536Zm-3.908,16.811a1.334,1.334,0,1,1-1.3,1.334A1.317,1.317,0,0,1,336.087,393.711Z" transform="translate(-317.764 -368.649)" fill="#fec35b"/>
      <path id="text3004" d="M682.661,363.754h.4V361.21h.962v-.31H681.7v.31h.962v2.543m1.706,0h.341v-2.326l.775,2.326h.4l.775-2.326v2.326h.372v-2.823h-.5l-.869,2.45-.713-2.45H684.4v2.823" transform="translate(-563.687 -357.612)" fill="#646464"/>
      <path id="path1894" d="M336.572,455.9c0,.993-4.187,1.8-9.336,1.8s-9.336-.806-9.336-1.8,4.187-1.8,9.336-1.8S336.572,454.906,336.572,455.9Z" transform="translate(-312.728 -421.904)" opacity="0.444" fill="url(#radial-gradient)"/>
    </g>
  </g>
</svg>
