<?xml version="1.0" encoding="UTF-8"?> <svg xmlns="http://www.w3.org/2000/svg" alt="shopify SEO" width="518.905" height="502.374" viewBox="0 0 518.905 502.374"><defs><style>.a{fill:#dce5b5;}.b,.z{fill:#fff;}.c{fill:#f3f3f3;}.d{fill:#eaefb9;}.e{fill:#62752f;}.ae,.af,.ai,.aj,.ak,.al,.am,.an,.f,.g,.i{fill:none;stroke-linejoin:round;}.f{stroke:#c6d8ad;stroke-width:2.513px;}.ae,.ai,.aj,.ak,.al,.am,.an,.f,.g,.i{stroke-linecap:round;}.ae,.af,.al,.an,.g{stroke:#fff;}.g{stroke-width:2.608px;}.h{fill:#5b991c;}.ai,.am,.i{stroke:#a8ad8e;}.ae,.i{stroke-width:2.545px;}.j{fill:#eef8ff;}.k{fill:#a8ad8e;}.l{fill:#e8eada;}.m{fill:#f56b64;}.n{fill:#fbffe1;}.o{fill:#e8655f;}.p{fill:#ff7b75;}.q{fill:#356807;}.r{fill:#638408;}.s{fill:#707a46;}.t{fill:#171e05;}.u{fill:#d14038;}.v{fill:#f55951;}.w{fill:#edc068;}.x{fill:#ffdb91;}.y{fill:#f2c772;}.z{opacity:0.84;}.aa{fill:#e64c4c;}.ab{fill:#db4848;}.ac{fill:#e6f3f7;}.ad{fill:#61af0e;}.af,.aj,.ak{stroke-width:3px;}.ag{fill:#edb23e;}.ah{fill:#368dce;}.ai{stroke-width:2.163px;}.aj{stroke:#171e05;}.ak{stroke:#638408;}.am{stroke-width:2.254px;}.an{stroke-width:4.584px;}</style></defs><g transform="translate(-230.118 -46.205)"><path class="a" d="M837.169,296.664s94.4,105.419,47.106,198.818S802.232,538.039,748.148,516.2c-58.177-23.486-125.929-48.547-75.693-109.956s-77.7-116.677,8.739-193.6S837.169,296.664,837.169,296.664Z" transform="translate(-189.073 -65.518)"></path><g transform="translate(629.997 285.213)"><path class="b" d="M1043.185,541.377c5.391,4.439,9.691,12.439,7.959,14.542s-8.289,1.16-13.679-3.279-7.573-10.694-5.841-12.8S1037.794,536.938,1043.185,541.377Z" transform="translate(-990.369 -506.561)"></path><path class="b" d="M986.405,491.784c-5.922-3.7-8.21-7.067-6.766-9.377s6.16-2.535,12.082,1.165,7.79,5.918,6.347,8.228S992.328,495.484,986.405,491.784Z" transform="translate(-967.052 -480.722)"></path><path class="b" d="M1033.7,503.859c5.391,4.439,7.767,9.576,6.035,11.679s-4.844,3.678-10.234-.762-7.162-8.759-5.431-10.862S1028.314,499.419,1033.7,503.859Z" transform="translate(-986.946 -490.005)"></path><path class="b" d="M997.679,525.878c-5.593-4.182-8.583-8.7-7.37-10.323s3.76-2.689,9.353,1.492,7.9,7.961,6.689,9.585S1003.272,530.06,997.679,525.878Z" transform="translate(-971.921 -495.75)"></path><path class="b" d="M960.912,493.863c-3.641-5.959-4.742-11.264-3.012-12.321s2.922.75,6.564,6.709,5.95,8.474,4.221,9.531S964.553,499.821,960.912,493.863Z" transform="translate(-957.098 -480.963)"></path></g><path class="a nitro-offscreen" d="M538.493,679.263s-21.609-120.133-70.907-108.9,29.28,61.831,46.061,96.4S539.094,682.353,538.493,679.263Z" transform="translate(-99.634 -235.507)"></path><path class="a nitro-offscreen" d="M504.028,727.775s-58.112-78.2-89.366-52.667,42.891,33.8,67.163,52.552S505.555,729.77,504.028,727.775Z" transform="translate(-79.631 -280.666)"></path><path class="c nitro-offscreen" d="M445.361,754.265s-67.18-6.818-152.932,13.8C222.788,784.815,225.5,811.774,235.2,830.2s34.307,13.476,74.25,17.635,136.373,19.542,156.411,12.693,108.6,13.377,143.95,3.265,118.684-43.488,69.853-72.3S445.361,754.265,445.361,754.265Z" transform="translate(0 -318.102)"></path><g transform="translate(458.764 302.529)" class="nitro-offscreen"><g transform="translate(0 35.148)"><path class="d" d="M955.584,683.037s59.455-5.673,63.134-93C1018.718,590.033,935.871,614.426,955.584,683.037Z" transform="translate(-783.819 -582.371)"></path><path class="e" d="M941.673,723.927s82.221,19.886,127.511-95.335C1069.184,628.593,946.993,622.957,941.673,723.927Z" transform="translate(-778.924 -599.695)"></path><line class="f" y1="65.222" x2="90.795" transform="translate(181.318 43.439)"></line><line class="f" x2="20.432" y2="0.685" transform="translate(250.153 59.586)"></line><line class="f" x2="28.775" y2="4.91" transform="translate(228.574 73.922)"></line><line class="f" x1="3.078" y2="22.293" transform="translate(250.153 37.293)"></line><line class="f" x1="2.68" y2="29.517" transform="translate(228.574 44.405)"></line><line class="f" x1="2.68" y2="29.517" transform="translate(205.676 60.186)"></line><path class="g" d="M1079.476,750.8" transform="translate(-840.928 -654.707)"></path><path class="g" d="M645.8,576.1" transform="translate(-645.796 -576.103)"></path><line class="f" x2="28.775" y2="4.91" transform="translate(207.015 91.666)"></line></g><path class="h" d="M875.607,649.3s-17.061-48.13-6.675-60.42c6.9-8.163,21.531,1.827,18.014-16.293-4.856-25.015,15.609-31.238,29.02-32.771s7.3-32.175,26.887-27.036,5.144,32.362,1.872,38.744,13.425,9.409,6.09,32.8c-6.279,20.031-17.343,9.189-17.811,26.674s7.712,20.406-10.608,30.958C904.73,652.138,875.607,649.3,875.607,649.3Z" transform="translate(-744.686 -512.203)"></path><line class="f" x1="49.445" y2="110.363" transform="translate(146.506 15.62)"></line></g><path class="i nitro-offscreen" d="M958.007,383.082s-58.591,74.75-64.333,141.1" transform="translate(-298.564 -151.576)"></path><path class="d" d="M547.9,215.6s-28.736,19.693-28.556,74.777l-19.619-25.463c7.427-9.761,30.524-43.3,26.188-77.849,0,0-28.737,19.693-28.556,74.777l-15.176-19.7c5.807-9.927,22.063-41.317,14.813-70.838,0,0-22.751,19.821-17.69,67.1l-13.917-18.062c2.8-8.122,12.226-39.593.084-64.628,0,0-15.973,21.307-2.75,61.169l-13.072-16.965c-13.814-34.013-36.488-40.611-36.488-40.611,4.248,21.752,21.891,38.548,32.491,46.915l7.245,9.4c-31.725-17.854-53.442-9.044-53.442-9.044,19,16.309,47.49,17.057,59.248,16.58l12.465,16.178c-41.475-14.052-64.678,1.7-64.678,1.7,24.722,13.461,56.133,7.84,69.443,4.486l13.777,17.88c-50.385-11.945-75.356,9.614-75.356,9.614,30.158,12.138,65.561.93,79.35-4.431l17.992,23.351c-31.364-7.436-50.916.181-62.692,5.429,15.928,8.982,32.338,10.887,49.256,5.346a155.632,155.632,0,0,0,17.43-5.592l7.038,9.134,9.966,1.443L521.71,293.449C529.138,283.688,552.234,250.147,547.9,215.6Z" transform="translate(-76.192 -49.276)"></path><path class="e" d="M595.672,212.074,590.6,180.332a152.089,152.089,0,0,0,31.166-18.943l3.789-26.164c-11.076,7.482-24.133,20.09-35.566,41.278l-3.921-24.554c8.812-5.322,33.193-21.753,43.759-46.224l1.212-8.368c-6.778,2.282-30.317,12.639-45.714,49.937l-3.6-22.516c6.339-5.8,29.658-28.939,30.954-56.733,0,0-24.212,11.086-31.643,52.421l-3.377-21.15c4.117-36.48-12.65-53.11-12.65-53.11-6.661,21.138.812,44.323,6.127,56.738l1.871,11.721c-19.339-30.843-42.625-33.48-42.625-33.48,8.9,23.4,33.569,37.674,44.126,42.873l3.221,20.168c-29.721-32.161-57.629-29.413-57.629-29.413,15.287,23.638,45.565,33.708,58.86,37.12l3.559,22.289c-38.554-34.567-70.791-27.559-70.791-27.559,20.693,25.072,57.149,32.141,71.823,34.02l4.648,29.111c-38.554-34.567-70.792-27.559-70.792-27.559,20.693,25.072,57.149,32.141,71.823,34.02l4.069,25.484,7.271,1.053-4.294-26.89a153.108,153.108,0,0,0,19.092-10.356l3.59-24.795A125.2,125.2,0,0,0,595.672,212.074Z" transform="translate(-126.712)"></path><path class="j" d="M757.44,583.521l-153.417-31.5c-10.314-2.118-17.753-11.581-17.753-22.582V238.4c0-10.368,7.727-18.935,17.616-19.531l162.694-9.8c10.727-.646,19.764,8.284,19.764,19.531V558.625C786.344,574.6,772.414,586.6,757.44,583.521Z" transform="translate(-160.249 -73.266)"></path><path class="k" d="M727.13,588.58,573.713,556.65C563.4,554.5,555.96,544.913,555.96,533.763V238.8c0-10.508,7.728-19.191,17.616-19.795l162.694-9.933c10.727-.655,19.764,8.4,19.764,19.795V563.348C756.034,579.535,742.1,591.7,727.13,588.58Z" transform="translate(-146.611 -73.266)"></path><path class="b" d="M727.13,601.057,591.271,572.782c-8.836-1.839-15.209-10.056-15.209-19.608V292.94c0-8.96,6.59-16.365,15.023-16.88L735.1,267.268c9.147-.559,16.854,7.16,16.854,16.88V579.388C751.952,593.289,739.989,603.733,727.13,601.057Z" transform="translate(-155.656 -99.453)"></path><path class="b" d="M727.13,568.218,591.271,539.943c-8.836-1.839-15.209-10.055-15.209-19.607V260.1c0-8.96,6.59-16.365,15.023-16.88l144.894-8.416c9.147-.558,15.974,6.784,15.974,16.5V546.55C751.952,560.451,739.989,570.9,727.13,568.218Z" transform="translate(-155.656 -84.847)"></path><path class="l nitro-offscreen" d="M748.78,553.31,605.848,537.3V405.257l142.932-1.736Z" transform="translate(-169.058 -160.773)"></path><path class="m nitro-offscreen" d="M597.152,510.55l-10.445.993a1.619,1.619,0,0,1-1.8-1.355h0a1.565,1.565,0,0,1,1.4-1.706l10.536-1.038a1.565,1.565,0,0,1,1.706,1.4h0A1.565,1.565,0,0,1,597.152,510.55Z" transform="translate(-159.633 -207.529)"></path><g transform="translate(635.755 139.347)"><g transform="translate(0 17.35)"><path class="n" d="M967.654,249.44a11.246,11.246,0,0,0,3.529,5.056,1.923,1.923,0,0,0,2.636,0,1.877,1.877,0,0,0,0-2.636,7.758,7.758,0,0,1-2.57-3.411,1.913,1.913,0,0,0-2.293-1.3,1.88,1.88,0,0,0-1.3,2.293Z" transform="translate(-967.567 -247.08)"></path></g><g transform="translate(20.822 24.231)"><path class="n" d="M1005.427,261.455a3.341,3.341,0,0,0,1.576,2.921,1.878,1.878,0,0,0,2.551-.669,1.908,1.908,0,0,0-.669-2.55,1.431,1.431,0,0,1-.125-.089l.377.292a1.764,1.764,0,0,1-.217-.218l.291.377a1.789,1.789,0,0,1-.2-.329l.188.446a1.79,1.79,0,0,1-.1-.369c.022.165.045.33.067.5a1.685,1.685,0,0,1-.008-.307,1.875,1.875,0,0,0-1.864-1.864,1.907,1.907,0,0,0-1.864,1.864Z" transform="translate(-1005.422 -259.589)"></path></g><g transform="translate(37.836 28.182)"><path class="n" d="M1037.709,270.448c.294.1-.067-.02-.063-.037,0,0,.274.138.306.156q.12.067.235.142c.039.024.077.05.114.076q.167.118-.1-.084a3.2,3.2,0,0,1,.4.376c.042.045.267.354.117.128s.081.139.088.15a1.864,1.864,0,1,0,3.219-1.882,6.332,6.332,0,0,0-3.321-2.62,1.874,1.874,0,0,0-2.293,1.3,1.911,1.911,0,0,0,1.3,2.293Z" transform="translate(-1036.352 -266.772)"></path></g><g transform="translate(52.498 32.809)"><path class="n" d="M1063.063,277.51a15.119,15.119,0,0,0,3.024,6.105,1.875,1.875,0,0,0,2.636,0,1.909,1.909,0,0,0,0-2.636,10.994,10.994,0,0,1-2.065-4.46c-.534-2.338-4.129-1.348-3.594.991Z" transform="translate(-1063.009 -275.184)"></path></g><g transform="translate(60.895 48.949)"><path class="n" d="M1078.525,307.328l.676.974a2,2,0,0,0,1.114.856,1.906,1.906,0,0,0,1.436-.188,1.879,1.879,0,0,0,.856-1.114,1.845,1.845,0,0,0-.187-1.436l-.677-.974a2,2,0,0,0-1.114-.856,1.9,1.9,0,0,0-1.437.188,1.882,1.882,0,0,0-.857,1.114,1.847,1.847,0,0,0,.188,1.436Z" transform="translate(-1078.274 -304.527)"></path></g><g transform="translate(21.335)"><path class="n" d="M1006.4,217.9q.166.822.332,1.644a1.876,1.876,0,0,0,2.293,1.3,1.911,1.911,0,0,0,1.3-2.293q-.167-.822-.333-1.644a1.876,1.876,0,0,0-2.293-1.3,1.91,1.91,0,0,0-1.3,2.293Z" transform="translate(-1006.353 -215.537)"></path></g><g transform="translate(41.107 53.453)"><path class="n" d="M1042.826,315.894a10.9,10.9,0,0,0,3.3,2.633,1.864,1.864,0,1,0,1.882-3.219c-.251-.13-.5-.267-.739-.419-.133-.084-.262-.174-.393-.261l-.154-.11c.1.081.1.083,0,0a9.555,9.555,0,0,1-1.269-1.262,1.873,1.873,0,0,0-2.637,0,1.914,1.914,0,0,0,0,2.636Z" transform="translate(-1042.3 -312.715)"></path></g><g transform="translate(26.455 40.894)"><path class="n" d="M1020.067,293.043a3.423,3.423,0,0,0-1.615-2.9,1.878,1.878,0,0,0-2.55.668,1.907,1.907,0,0,0,.668,2.551,1.406,1.406,0,0,1,.126.087l-.377-.292a1.8,1.8,0,0,1,.268.274l-.292-.377a1.857,1.857,0,0,1,.189.334l-.187-.445a1.826,1.826,0,0,1,.1.37c-.023-.165-.044-.331-.066-.5a2.012,2.012,0,0,1,.01.23,1.864,1.864,0,1,0,3.728,0Z" transform="translate(-1015.662 -289.883)"></path></g><g transform="translate(11.122 34.782)"><path class="n" d="M992.6,280.953l-1.645-1.645a1.864,1.864,0,1,0-2.636,2.636l1.645,1.645a1.864,1.864,0,1,0,2.636-2.636Z" transform="translate(-987.786 -278.771)"></path></g><g transform="translate(8.29 7.808)"><path class="n" d="M982.757,231.082a5.782,5.782,0,0,0,.82,4.4A1.864,1.864,0,1,0,986.8,233.6a4.065,4.065,0,0,1-.3-.5c.111.224-.093-.3-.112-.376-.024-.095-.043-.19-.058-.286q.037.211.021.011c0-.081.063-.668.009-.375a1.864,1.864,0,0,0-3.595-.991Z" transform="translate(-982.639 -229.733)"></path></g><g transform="translate(55.222 7.825)"><path class="n" d="M1068.05,232.125a27.007,27.007,0,0,0,2.262,4.689c1.254,2.041,4.48.171,3.219-1.882a21.935,21.935,0,0,1-1.885-3.8,1.916,1.916,0,0,0-2.293-1.3,1.879,1.879,0,0,0-1.3,2.293Z" transform="translate(-1067.96 -229.764)"></path></g><g transform="translate(34.928 13.723)"><path class="n" d="M1031.289,243.308a23.7,23.7,0,0,0,4.322,5.92,1.865,1.865,0,0,0,2.636-2.636,20.414,20.414,0,0,1-3.739-5.166c-1.095-2.136-4.312-.252-3.219,1.882Z" transform="translate(-1031.066 -240.487)"></path></g></g><path class="m nitro-offscreen" d="M538.5,518.358c-9.739,10.526-18.479,20.553-21.184,27.742l17.652-3.928L544.44,525.8l10.034-4.916a6.339,6.339,0,0,0,3.373-7.183l-1.037-4.29-4.284.611a19.077,19.077,0,0,0-10.206,4.832Z" transform="translate(-129.221 -208.415)"></path><path class="o nitro-offscreen" d="M467.143,449.823s-9.924-1.422-14.523-4.936l-2.607-.655-2.041,9.9,11.682.64a2.46,2.46,0,0,1,1.1-3.324A22.838,22.838,0,0,1,467.143,449.823Z" transform="translate(-98.022 -179.09)"></path><path class="m nitro-offscreen" d="M468.525,423.677l.648,4.494a7.945,7.945,0,0,0,.995,2.859l1.517,1.7a1.26,1.26,0,0,1-.081,1.762,4.2,4.2,0,0,0-.878,1.022c-.96,2.155-.917,6.012-1.908,6.81-1.267,1.021-2.926,1.844-5.915.51a23.116,23.116,0,0,1-7.108-5.4,5.147,5.147,0,0,1-.85-3.557c-1.981-.711-2.595-5.245,1.771-5.179,4.033.061,6.479-1.333,7.673-2.922A5,5,0,0,1,468.525,423.677Z" transform="translate(-100.478 -169.84)"></path><path class="o nitro-offscreen" d="M468.013,452.445a16.047,16.047,0,0,1-13.087-7.477l-1.587,4.567,8.77,3.209S465.91,453.769,468.013,452.445Z" transform="translate(-100.437 -179.422)"></path><path class="p nitro-offscreen" d="M522.059,843.7l2.5,13.036-7.822,1.63s-5.106-11.407-4.78-11.407S522.059,843.7,522.059,843.7Z" transform="translate(-126.805 -358.829)"></path><path class="p nitro-offscreen" d="M433.621,840.755,432.8,854l-7.982-.365s-2.113-12.317-1.8-12.237S433.621,840.755,433.621,840.755Z" transform="translate(-86.783 -357.504)"></path><path class="q nitro-offscreen" d="M455.079,588.672l13.7,61.381s1.086,7.388,1.738,15.21,7.387,58.882,7.387,58.882a14.235,14.235,0,0,1-12.6,3.911s-11.516-26.508-12.168-35.2-1.738-30.2-1.738-30.2l-15.861-44.107-4.78,44.107-2.661,61.86s-6.272,4.113-11.849,1.019c0,0-7.87-32.678-6.349-45.062s5-20.641,5-22.6-3.042-49.1-3.042-49.1-6.88-18.831,6.012-32.229Z" transform="translate(-80.802 -238.622)"></path><path class="r nitro-offscreen" d="M454.857,588.672c-.52-.011-32.045-3.814-36.547,2.867-8.753,12.99-6.681,17.231-6.681,17.231l-2.151-8.512s-2.574-11.477,8.162-23.717Z" transform="translate(-80.581 -238.622)"></path><g transform="translate(344.492 243.98)" class="nitro-offscreen"><path class="s" d="M464.457,412.183s.635,3.391-2.7,3.42-5,6.246-8.284,7.126c-1.656.443-2.98,3.116-4,4.58a3.3,3.3,0,0,1-4.387,1.176l-2.174-2.08s-6.039-5.509-4.668-9.518c.364-1.064.811-2.157,1.27-3.188a12.8,12.8,0,0,1,8.9-7.249C454.047,405.182,461.814,404.951,464.457,412.183Z" transform="translate(-438.049 -405.761)"></path></g><g transform="translate(344.492 251.361)" class="nitro-offscreen"><path class="t" d="M449.48,433.346a3.3,3.3,0,0,1-4.387,1.175l-2.174-2.08s-6.039-5.509-4.668-9.518c.364-1.064.811-2.157,1.27-3.188C441.167,416.043,450.5,431.882,449.48,433.346Z" transform="translate(-438.049 -419.179)"></path></g><path class="t nitro-offscreen" d="M478.839,433.822c.12.574-.063.729-.356.79s-.587.007-.707-.567.019-1.089.312-1.151S478.718,433.249,478.839,433.822Z" transform="translate(-111.413 -173.987)"></path><path class="t nitro-offscreen" d="M476.484,429.01a2.74,2.74,0,0,0-2.2.536c-.763.547-.621,1.338.221.712a4.93,4.93,0,0,1,1.566-.541c.553-.078,1.136.156,1.2-.053C477.421,429.178,476.753,429.061,476.484,429.01Z" transform="translate(-109.635 -172.218)"></path><path class="u nitro-offscreen" d="M479.395,447.9a.3.3,0,0,1,.041.539,2.544,2.544,0,0,1-2.811.053c-.881-.639-.157-1.023.465-.588C477.856,448.442,478.79,447.682,479.395,447.9Z" transform="translate(-110.73 -180.661)"></path><path class="v nitro-offscreen" d="M470.789,438.29a1.422,1.422,0,1,0,1.185-1.591A1.4,1.4,0,0,0,470.789,438.29Z" transform="translate(-108.281 -175.693)"></path><path class="w nitro-offscreen" d="M414.468,472.158s-6.878,3.481-9.274,7.345c-6.872,11.083-18.849,48.841-4.4,48.258a37.549,37.549,0,0,0,16.537-5.173Z" transform="translate(-73.729 -191.656)"></path><path class="x nitro-offscreen" d="M419.24,526.9s1.465-17.882,1.625-25.409,4.26-35.385,4.26-35.385l4.271-2.563a12.814,12.814,0,0,0,3.535-3.139l2.05-2.646s3.6,3.424,12.181,1.3c0,0,.62,5.4,3.838,5.966.62.109,7.739,1.744,7.665,1.988,4.585,1.741,7.847,3.59,11.332,8.779,6.354,9.461,11.393,30.267,9.593,30.722,0,0-.1-5.665,2.026-5.1s6.112,11.534,7.125,14.167,1.673,10.754-2.417,11.359-8.081,2-11.68,1.106c-5.7-1.409-11.37-20.966-11.37-20.966L458.6,525.038c2.315,5.74,1.633,8.971-1.165,10.429C440.969,536.735,428.3,533.813,419.24,526.9Z" transform="translate(-85.094 -185.175)"></path><path class="y nitro-offscreen" d="M419.24,529.061s1.465-17.882,1.625-25.409,4.26-35.385,4.26-35.385L429.4,465.7a12.814,12.814,0,0,0,3.535-3.139c-6.525,35.21-8.28,67.112,24.5,75.065C440.969,538.9,428.3,535.977,419.24,529.061Z" transform="translate(-85.094 -187.34)"></path><path class="s nitro-offscreen" d="M474.678,408.811s1.5-3.159,4.036-1.79,5.206,8.464-2.176,9.009-4.976-4.51-4.739-4.613S474.678,408.811,474.678,408.811Z" transform="translate(-108.491 -162.193)"></path><path class="w nitro-offscreen" d="M454.5,468.732s-9.426-1.682-13.257-3.894l-1.636,6.511S448.855,470.957,454.5,468.732Z" transform="translate(-94.26 -188.362)"></path><path class="t nitro-offscreen" d="M418.569,408.9s-5.489-6.99-11.058,1.047-23.521,6.518-23.322,21.089S367.8,463.051,382.27,466.3s22.781,2.019,21.879-10.013,9-10.61,9.278-17.824-3.144-12.815-.092-17.972S421.893,413.413,418.569,408.9Z" transform="translate(-65.792 -161.925)"></path><path class="y nitro-offscreen" d="M495.232,533.621s-5.036-17.563-4.968-16.847,1.855,28.8,1.855,28.8Z" transform="translate(-117.051 -211.721)"></path><path class="s nitro-offscreen" d="M405.166,452.94c2.514-15.942-1.812-20.843,3.554-28.753s18.362-10.013,18.2-16.8a3.644,3.644,0,0,0-.21-1.127,7.965,7.965,0,0,1,4.684,2.785c3.323,4.513-2.181,6.428-5.233,11.586s.375,10.759.092,17.972-10.18,5.792-9.278,17.824c.478,6.381-1.636,9.722-5.884,10.97C407.974,466.618,403.473,463.678,405.166,452.94Z" transform="translate(-78.596 -162.004)"></path><path class="m nitro-offscreen" d="M455.38,437.767a2.712,2.712,0,1,0,1.35-3.8A2.862,2.862,0,0,0,455.38,437.767Z" transform="translate(-101.243 -174.387)"></path><path class="o nitro-offscreen" d="M458.865,438.135c.056.591.467,1.035.919.992a.974.974,0,0,0,.716-1.147c-.056-.591-.467-1.035-.919-.992A.974.974,0,0,0,458.865,438.135Z" transform="translate(-102.921 -175.83)"></path><path class="y nitro-offscreen" d="M528.35,541.062s.079,12.119,2.177,16.426C530.527,557.488,524.461,551.591,528.35,541.062Z" transform="translate(-133.602 -222.659)"></path><path class="z nitro-offscreen" d="M535.6,574.359a.856.856,0,1,0,.772-.933A.857.857,0,0,0,535.6,574.359Z" transform="translate(-137.448 -237.219)"></path><path class="z nitro-offscreen" d="M517.042,576.115a.856.856,0,1,0,.772-.933A.857.857,0,0,0,517.042,576.115Z" transform="translate(-129.098 -238.009)"></path><path class="z nitro-offscreen" d="M524.437,565.127a.856.856,0,1,0,.772-.933A.857.857,0,0,0,524.437,565.127Z" transform="translate(-132.426 -233.065)"></path><path class="z nitro-offscreen" d="M505.88,566.884a.856.856,0,1,0,.772-.934A.856.856,0,0,0,505.88,566.884Z" transform="translate(-124.076 -233.855)"></path><path class="z nitro-offscreen" d="M533.831,555.681a.856.856,0,1,0,.772-.934A.857.857,0,0,0,533.831,555.681Z" transform="translate(-136.652 -228.815)"></path><path class="z nitro-offscreen" d="M515.274,557.438a.856.856,0,1,0,.772-.933A.857.857,0,0,0,515.274,557.438Z" transform="translate(-128.303 -229.605)"></path><path class="z nitro-offscreen" d="M522.669,546.45a.856.856,0,1,0,.772-.933A.856.856,0,0,0,522.669,546.45Z" transform="translate(-131.63 -224.661)"></path><path class="z nitro-offscreen" d="M504.112,548.206a.856.856,0,1,0,.772-.934A.857.857,0,0,0,504.112,548.206Z" transform="translate(-123.28 -225.451)"></path><path class="z nitro-offscreen" d="M513.506,538.76a.856.856,0,1,0,.772-.933A.856.856,0,0,0,513.506,538.76Z" transform="translate(-127.507 -221.201)"></path><path class="z nitro-offscreen" d="M520.9,527.772a.856.856,0,1,0,.772-.933A.857.857,0,0,0,520.9,527.772Z" transform="translate(-130.835 -216.257)"></path><path class="z nitro-offscreen" d="M502.344,529.529a.856.856,0,1,0,.772-.934A.856.856,0,0,0,502.344,529.529Z" transform="translate(-122.485 -217.048)"></path><path class="z nitro-offscreen" d="M511.738,520.082a.856.856,0,1,0,.772-.934A.857.857,0,0,0,511.738,520.082Z" transform="translate(-126.712 -212.797)"></path><path class="z nitro-offscreen" d="M519.133,509.094a.856.856,0,1,0,.772-.933A.857.857,0,0,0,519.133,509.094Z" transform="translate(-130.039 -207.853)"></path><path class="z nitro-offscreen" d="M500.576,510.851a.856.856,0,1,0,.772-.933A.857.857,0,0,0,500.576,510.851Z" transform="translate(-121.689 -208.644)"></path><path class="z nitro-offscreen" d="M509.97,501.405a.856.856,0,1,0,.772-.933A.857.857,0,0,0,509.97,501.405Z" transform="translate(-125.916 -204.394)"></path><path class="z nitro-offscreen" d="M498.808,492.173a.856.856,0,1,0,.772-.933A.857.857,0,0,0,498.808,492.173Z" transform="translate(-120.894 -200.24)"></path><path class="z nitro-offscreen" d="M477.866,579.824a.856.856,0,1,0,.772-.933A.856.856,0,0,0,477.866,579.824Z" transform="translate(-111.471 -239.678)"></path><path class="z nitro-offscreen" d="M485.261,568.836a.857.857,0,1,0,.772-.934A.856.856,0,0,0,485.261,568.836Z" transform="translate(-114.798 -234.734)"></path><path class="z nitro-offscreen" d="M466.7,570.592a.857.857,0,1,0,.772-.934A.857.857,0,0,0,466.7,570.592Z" transform="translate(-106.449 -235.524)"></path><path class="z nitro-offscreen" d="M494.655,559.39a.856.856,0,1,0,.772-.933A.856.856,0,0,0,494.655,559.39Z" transform="translate(-119.025 -230.484)"></path><path class="z nitro-offscreen" d="M476.1,561.146a.856.856,0,1,0,.772-.933A.857.857,0,0,0,476.1,561.146Z" transform="translate(-110.676 -231.274)"></path><path class="z nitro-offscreen" d="M483.493,550.158a.857.857,0,1,0,.772-.933A.857.857,0,0,0,483.493,550.158Z" transform="translate(-114.003 -226.33)"></path><path class="z nitro-offscreen" d="M464.936,551.915a.857.857,0,1,0,.772-.934A.856.856,0,0,0,464.936,551.915Z" transform="translate(-105.653 -227.12)"></path><path class="z nitro-offscreen" d="M492.887,540.712a.856.856,0,1,0,.772-.933A.857.857,0,0,0,492.887,540.712Z" transform="translate(-118.23 -222.079)"></path><path class="z nitro-offscreen" d="M474.33,542.468a.856.856,0,1,0,.772-.933A.857.857,0,0,0,474.33,542.468Z" transform="translate(-109.88 -222.87)"></path><path class="z nitro-offscreen" d="M481.725,531.48a.857.857,0,1,0,.772-.933A.857.857,0,0,0,481.725,531.48Z" transform="translate(-113.207 -217.926)"></path><path class="z nitro-offscreen" d="M463.168,533.237a.857.857,0,1,0,.772-.934A.856.856,0,0,0,463.168,533.237Z" transform="translate(-104.858 -218.716)"></path><path class="z nitro-offscreen" d="M491.119,522.034a.856.856,0,1,0,.772-.934A.856.856,0,0,0,491.119,522.034Z" transform="translate(-117.434 -213.675)"></path><path class="z nitro-offscreen" d="M472.562,523.791a.856.856,0,1,0,.772-.933A.856.856,0,0,0,472.562,523.791Z" transform="translate(-109.085 -214.466)"></path><path class="z nitro-offscreen" d="M479.957,512.8a.857.857,0,1,0,.772-.933A.856.856,0,0,0,479.957,512.8Z" transform="translate(-112.412 -209.522)"></path><path class="z nitro-offscreen" d="M461.4,514.559a.857.857,0,1,0,.772-.933A.857.857,0,0,0,461.4,514.559Z" transform="translate(-104.062 -210.312)"></path><path class="z nitro-offscreen" d="M489.351,503.356a.856.856,0,1,0,.772-.933A.857.857,0,0,0,489.351,503.356Z" transform="translate(-116.639 -205.271)"></path><path class="z nitro-offscreen" d="M470.794,505.113a.856.856,0,1,0,.772-.933A.856.856,0,0,0,470.794,505.113Z" transform="translate(-108.289 -206.062)"></path><path class="z nitro-offscreen" d="M478.189,494.125a.857.857,0,1,0,.772-.933A.856.856,0,0,0,478.189,494.125Z" transform="translate(-111.616 -201.118)"></path><path class="z nitro-offscreen" d="M459.632,495.882a.857.857,0,1,0,.772-.933A.857.857,0,0,0,459.632,495.882Z" transform="translate(-103.267 -201.909)"></path><path class="z nitro-offscreen" d="M487.583,484.679a.856.856,0,1,0,.772-.933A.857.857,0,0,0,487.583,484.679Z" transform="translate(-115.843 -196.868)"></path><path class="z nitro-offscreen" d="M469.026,486.435a.856.856,0,1,0,.772-.933A.857.857,0,0,0,469.026,486.435Z" transform="translate(-107.494 -197.658)"></path><path class="z nitro-offscreen" d="M476.421,475.447a.857.857,0,1,0,.772-.933A.857.857,0,0,0,476.421,475.447Z" transform="translate(-110.821 -192.714)"></path><path class="z nitro-offscreen" d="M457.864,477.2a.857.857,0,1,0,.772-.933A.856.856,0,0,0,457.864,477.2Z" transform="translate(-102.471 -193.504)"></path><path class="z nitro-offscreen" d="M456.6,463.821a.857.857,0,1,0,.772-.933A.857.857,0,0,0,456.6,463.821Z" transform="translate(-101.901 -187.483)"></path><path class="z nitro-offscreen" d="M457.247,581.775a.857.857,0,1,0,.772-.933A.856.856,0,0,0,457.247,581.775Z" transform="translate(-102.194 -240.556)"></path><path class="z nitro-offscreen" d="M438.69,583.532a.857.857,0,1,0,.772-.933A.857.857,0,0,0,438.69,583.532Z" transform="translate(-93.844 -241.346)"></path><path class="z nitro-offscreen" d="M446.085,572.544a.857.857,0,1,0,.772-.933A.857.857,0,0,0,446.085,572.544Z" transform="translate(-97.171 -236.402)"></path><path class="z nitro-offscreen" d="M427.528,574.3a.857.857,0,1,0,.772-.933A.856.856,0,0,0,427.528,574.3Z" transform="translate(-88.822 -237.193)"></path><path class="z nitro-offscreen" d="M455.479,563.1a.857.857,0,1,0,.772-.933A.856.856,0,0,0,455.479,563.1Z" transform="translate(-101.398 -232.152)"></path><path class="z nitro-offscreen" d="M436.922,564.854a.857.857,0,1,0,.772-.933A.857.857,0,0,0,436.922,564.854Z" transform="translate(-93.048 -232.942)"></path><path class="z nitro-offscreen" d="M444.317,553.866a.857.857,0,1,0,.772-.933A.857.857,0,0,0,444.317,553.866Z" transform="translate(-96.376 -227.998)"></path><path class="z nitro-offscreen" d="M425.76,555.623a.857.857,0,1,0,.772-.934A.856.856,0,0,0,425.76,555.623Z" transform="translate(-88.026 -228.789)"></path><path class="z nitro-offscreen" d="M453.711,544.42a.857.857,0,1,0,.772-.933A.857.857,0,0,0,453.711,544.42Z" transform="translate(-100.603 -223.748)"></path><path class="z nitro-offscreen" d="M435.154,546.177a.857.857,0,1,0,.772-.933A.856.856,0,0,0,435.154,546.177Z" transform="translate(-92.253 -224.538)"></path><path class="z nitro-offscreen" d="M442.549,535.189a.857.857,0,1,0,.772-.933A.856.856,0,0,0,442.549,535.189Z" transform="translate(-95.58 -219.594)"></path><path class="z nitro-offscreen" d="M423.992,536.945a.857.857,0,1,0,.772-.933A.857.857,0,0,0,423.992,536.945Z" transform="translate(-87.231 -220.385)"></path><path class="z nitro-offscreen" d="M451.943,525.742a.857.857,0,1,0,.772-.933A.857.857,0,0,0,451.943,525.742Z" transform="translate(-99.807 -215.344)"></path><path class="z nitro-offscreen" d="M433.386,527.5a.857.857,0,1,0,.772-.933A.856.856,0,0,0,433.386,527.5Z" transform="translate(-91.457 -216.134)"></path><path class="z nitro-offscreen" d="M440.781,516.511a.857.857,0,1,0,.772-.933A.856.856,0,0,0,440.781,516.511Z" transform="translate(-94.785 -211.19)"></path><path class="z nitro-offscreen" d="M422.224,518.268a.857.857,0,1,0,.772-.933A.857.857,0,0,0,422.224,518.268Z" transform="translate(-86.435 -211.981)"></path><path class="z nitro-offscreen" d="M450.175,507.065a.857.857,0,1,0,.772-.933A.856.856,0,0,0,450.175,507.065Z" transform="translate(-99.012 -206.94)"></path><path class="z nitro-offscreen" d="M431.618,508.821a.856.856,0,1,0,.772-.933A.857.857,0,0,0,431.618,508.821Z" transform="translate(-90.662 -207.73)"></path><path class="z nitro-offscreen" d="M439.013,497.833a.857.857,0,1,0,.772-.933A.857.857,0,0,0,439.013,497.833Z" transform="translate(-93.989 -202.786)"></path><path class="z nitro-offscreen" d="M448.407,488.387a.857.857,0,1,0,.772-.933A.856.856,0,0,0,448.407,488.387Z" transform="translate(-98.216 -198.536)"></path><path class="z nitro-offscreen" d="M446.768,471.075a.857.857,0,1,0,.772-.933A.856.856,0,0,0,446.768,471.075Z" transform="translate(-97.479 -190.747)"></path><path class="z nitro-offscreen" d="M429.85,490.144a.856.856,0,1,0,.772-.933A.856.856,0,0,0,429.85,490.144Z" transform="translate(-89.866 -199.327)"></path><path class="z nitro-offscreen" d="M437.245,479.156a.857.857,0,1,0,.772-.933A.857.857,0,0,0,437.245,479.156Z" transform="translate(-93.194 -194.383)"></path><path class="z nitro-offscreen" d="M525.874,580.308a.856.856,0,1,0,.772-.934A.857.857,0,0,0,525.874,580.308Z" transform="translate(-133.072 -239.896)"></path><path class="z nitro-offscreen" d="M479.3,595.005a.856.856,0,1,0,.772-.933A.856.856,0,0,0,479.3,595.005Z" transform="translate(-112.118 -246.508)"></path><path class="z nitro-offscreen" d="M486.7,584.017a.857.857,0,1,0,.772-.933A.856.856,0,0,0,486.7,584.017Z" transform="translate(-115.445 -241.564)"></path><path class="z nitro-offscreen" d="M468.141,585.773a.857.857,0,1,0,.772-.933A.857.857,0,0,0,468.141,585.773Z" transform="translate(-107.095 -242.354)"></path><path class="z nitro-offscreen" d="M458.684,596.956a.857.857,0,1,0,.772-.933A.857.857,0,0,0,458.684,596.956Z" transform="translate(-102.84 -247.386)"></path><path class="z nitro-offscreen" d="M447.522,587.725a.857.857,0,1,0,.772-.933A.856.856,0,0,0,447.522,587.725Z" transform="translate(-97.818 -243.233)"></path><path class="z nitro-offscreen" d="M428.965,589.482a.857.857,0,1,0,.772-.933A.857.857,0,0,0,428.965,589.482Z" transform="translate(-89.468 -244.023)"></path><path class="z nitro-offscreen" d="M416.3,566.806a.857.857,0,1,0,.772-.934A.857.857,0,0,0,416.3,566.806Z" transform="translate(-83.771 -233.82)"></path><path class="z nitro-offscreen" d="M397.746,568.563a.857.857,0,1,0,.772-.933A.856.856,0,0,0,397.746,568.563Z" transform="translate(-75.421 -234.611)"></path><path class="z nitro-offscreen" d="M405.142,557.575a.856.856,0,1,0,.772-.933A.856.856,0,0,0,405.142,557.575Z" transform="translate(-78.749 -229.667)"></path><path class="z nitro-offscreen" d="M414.535,548.129a.857.857,0,1,0,.772-.933A.856.856,0,0,0,414.535,548.129Z" transform="translate(-82.976 -225.417)"></path><path class="z nitro-offscreen" d="M395.978,549.885a.857.857,0,1,0,.772-.933A.856.856,0,0,0,395.978,549.885Z" transform="translate(-74.626 -226.207)"></path><path class="z nitro-offscreen" d="M403.374,538.9a.856.856,0,1,0,.772-.934A.856.856,0,0,0,403.374,538.9Z" transform="translate(-77.954 -221.263)"></path><path class="z nitro-offscreen" d="M412.767,529.451a.857.857,0,1,0,.772-.934A.856.856,0,0,0,412.767,529.451Z" transform="translate(-82.18 -217.013)"></path><path class="z nitro-offscreen" d="M394.21,531.207a.857.857,0,1,0,.772-.934A.857.857,0,0,0,394.21,531.207Z" transform="translate(-73.83 -217.803)"></path><path class="z nitro-offscreen" d="M401.606,520.219a.856.856,0,1,0,.772-.934A.857.857,0,0,0,401.606,520.219Z" transform="translate(-77.158 -212.859)"></path><g transform="translate(385.269 495.343)" class="nitro-offscreen"><path class="k" d="M522.08,881.738l-.008,4.708c-.277,2.626,6.113,5.735,6.113,5.735s16.174-2.763,15.654-7.236c-.364-3.133-20.286-5.712-20.286-5.712Z" transform="translate(-516.629 -870.16)"></path><path class="p" d="M527.68,862.956c-.052-.131,4.07,9.748,8.69,11.927,1.623.765,2.771,2.08.024,2.723-5.409,1.266-10.992-.68-12.985-5.138l-3.428-6.274Z" transform="translate(-515.692 -862.836)"></path><path class="k" d="M515.962,863.18a1.418,1.418,0,0,0-1.97-.081c-1.169,1.084-2.6,3.92-1.285,11.294a17.258,17.258,0,0,0,.865,2.675c5.07-4.15,4.127.272,4.127.272,5.381.81,11.378,1.987,13.393.472,0,0-8.776,1.177-11.59-9.064A14.119,14.119,0,0,0,515.962,863.18Z" transform="translate(-512.183 -862.739)"></path><path class="k" d="M523.546,887.441l-.3-4.616c-1.179-2.042-4.658-2.149-3.8-.666a11.3,11.3,0,0,1,1.168,5.96c-.233,2.656,5.091,5.1,6.332,4.926C527.565,892.959,522.727,891.875,523.546,887.441Z" transform="translate(-515.391 -871.025)"></path><path class="k" d="M512.64,871.405l.75,15.76c-.039.534,1.258,1.48,1.6.011l3.652-12.931a2.13,2.13,0,0,0-.217-1.517l-1.852-3.266C515.682,867.9,512.773,869.576,512.64,871.405Z" transform="translate(-512.389 -865.486)"></path></g><g transform="translate(334.058 491.678)" class="nitro-offscreen"><path class="k" d="M428.977,875.074l-.008,4.708c-.277,2.626,6.113,5.735,6.113,5.735s16.174-2.763,15.654-7.236c-.364-3.133-20.286-5.712-20.286-5.712Z" transform="translate(-423.525 -863.496)"></path><path class="p" d="M434.577,856.292c-.052-.131,4.07,9.748,8.69,11.927,1.623.766,2.771,2.08.024,2.723-5.409,1.266-10.992-.68-12.985-5.138l-3.428-6.275Z" transform="translate(-422.589 -856.172)"></path><path class="k" d="M422.859,856.516a1.418,1.418,0,0,0-1.97-.081c-1.169,1.084-2.6,3.92-1.285,11.294a17.228,17.228,0,0,0,.865,2.675c5.07-4.149,4.127.272,4.127.272,5.381.81,11.378,1.986,13.393.472,0,0-8.776,1.177-11.59-9.064A14.119,14.119,0,0,0,422.859,856.516Z" transform="translate(-419.08 -856.075)"></path><path class="k" d="M430.443,880.778l-.3-4.616c-1.179-2.041-4.658-2.149-3.8-.666a11.3,11.3,0,0,1,1.168,5.96c-.233,2.656,5.091,5.1,6.332,4.926C434.462,886.3,429.624,885.211,430.443,880.778Z" transform="translate(-422.288 -864.361)"></path><path class="k" d="M419.537,864.741l.75,15.76c-.039.534,1.258,1.479,1.6.011l3.652-12.931a2.131,2.131,0,0,0-.217-1.517l-1.852-3.266C422.579,861.236,419.67,862.912,419.537,864.741Z" transform="translate(-419.286 -858.822)"></path></g><g transform="translate(420.945 172.884)"><path class="l" d="M577.177,308.762s-2.639,34.581,15.4,33.963c13.309-.455,15.411-19.134,15.6-28.894.163,9.845,2.221,28.526,15.519,28.07,11.785-.4,14.783-15.1,15.446-25.234.729,10.14,3.818,24.082,15.327,23.688,18.035-.618,15.493-34.7,15.493-34.7C659.361,268.262,581.476,264.29,577.177,308.762Z" transform="translate(-577.042 -276.508)"></path><path class="l" d="M808.237,311.228c-22.94-23.681-44.356-31.342-61.916,1.563,0,0-2.639,34.58,15.4,33.963,12.6-.432,15.157-17.206,15.552-27.272.368,10.134,2.877,26.88,15.476,26.448C810.778,345.314,808.237,311.228,808.237,311.228Z" transform="translate(-653.147 -282.907)"></path></g><path class="l" d="M836.154,285.946l20.262-18.77V250.059s-.484-15.963-16.2-15.51a56.158,56.158,0,0,0-26.389,7.266l-5.6,34.54,8.271,18.937Z" transform="translate(-260.12 -84.74)"></path><path class="aa" d="M563.055,242.708l-39.776,25.841,163.668-3.9a3.674,3.674,0,0,0,2.168-.772L718.944,240.7a3.677,3.677,0,0,0-2.449-6.575l-151.631,8A3.669,3.669,0,0,0,563.055,242.708Z" transform="translate(-131.906 -84.55)"></path><path class="ab" d="M523.161,296.109s-2.808,34.581,16.382,33.963,16.485-34.7,16.485-34.7Z" transform="translate(-131.788 -112.11)"></path><path class="ac" d="M583.358,294.612s-2.807,34.581,16.382,33.963,16.485-34.7,16.485-34.7Z" transform="translate(-158.874 -111.437)"></path><path class="ab" d="M642.887,291.8s-2.807,34.58,16.382,33.963,16.485-34.7,16.485-34.7Z" transform="translate(-185.659 -110.172)"></path><path class="ac" d="M703.139,291.8s-2.808,34.58,16.382,33.963,16.485-34.7,16.485-34.7Z" transform="translate(-212.769 -110.172)"></path><path class="ab" d="M763.161,290.3s-2.808,34.581,16.382,33.963,16.485-34.7,16.485-34.7Z" transform="translate(-239.775 -109.499)"></path><path class="b" d="M703.257,267.224,738.04,238.3l33.8-1.863L736.272,266.4Z" transform="translate(-212.886 -85.595)"></path><path class="b" d="M583.477,271.639l35.379-27.025,34.1-1.8L616.343,270.9Z" transform="translate(-158.992 -88.464)"></path><g transform="translate(565.301 186.857)"><path class="ad" d="M941.156,320.23c-18.5-25.1-56.542-24.293-73.744,1.712a84.912,84.912,0,0,0-5.456,9.606l-22.476,46.035s83.785-26.183,97.561-24.494C962.912,356.261,953.289,336.7,941.156,320.23Z" transform="translate(-839.481 -301.91)"></path><path class="e" d="M1030.987,357.073s-57.273-9.118-53.417,25.125c6.415,56.953,56.661,41.416,81.373,94.753,0,0,52.374-126.127.344-132.243C1032.083,341.511,1030.987,357.073,1030.987,357.073Z" transform="translate(-901.53 -320.972)"></path><path class="ae" d="M1074.834,367.542s39.82,48.107,27.956,114.238" transform="translate(-945.377 -331.441)"></path><path class="ae nitro-offscreen" d="M1046.6,383.919s-28.645-10.321-41.893,14.752" transform="translate(-913.825 -337.863)"></path><path class="ae nitro-offscreen" d="M1065.02,420.951s-34.246,5.055-47.173,27.487" transform="translate(-919.736 -355.472)"></path><path class="ae nitro-offscreen" d="M1092.891,462.64s-23.239,9.539-28.965,25.016" transform="translate(-940.469 -374.23)"></path><path class="ae nitro-offscreen" d="M1087.54,383.067s28.563-14.494,42.6,16.5" transform="translate(-951.094 -336.903)"></path><path class="ae nitro-offscreen" d="M1113.885,418.766s18.784,2.756,23.775,16.4" transform="translate(-962.948 -354.489)"></path><path class="ae nitro-offscreen" d="M1129.122,461.469s14.948,3.365,12.242,19.666" transform="translate(-969.804 -373.703)"></path><path class="ae" d="M942.987,345.846s-38.741-36.252-87.97,38.926" transform="translate(-846.471 -317.747)"></path><path class="ae" d="M969.6,348.318s-17.536,8.9-22.338,28.887" transform="translate(-887.977 -322.791)"></path><path class="ae" d="M917.363,356.7s-17.835,11.944-22.462,33.316" transform="translate(-864.417 -326.563)"></path><path class="ae" d="M882.9,352.044c.2-.519,12.587-8.9,22.328-9.077" transform="translate(-859.015 -320.383)"></path><path class="ae" d="M937.262,317.26s21.563-3.416,29.063,9.594" transform="translate(-883.477 -308.634)"></path></g><path class="aa nitro-offscreen" d="M605.848,675.838v42.113l142.866,25.227V694.3Z" transform="translate(-169.058 -283.3)"></path><line class="af nitro-offscreen" x2="118.41" y2="15.29" transform="translate(446.891 416.51)"></line><g transform="translate(438.499 434.516)" class="nitro-offscreen"><path class="ag" d="M711.737,871.491l24.794-19.865L727.5,796.389l-6.162,2.336-8.121,6Z" transform="translate(-655.201 -772.058)"></path><path class="y" d="M610.607,802.87l.82-13.7,55.545,12.307-1.482,66.768L608.955,850.1l1.3-33.456Z" transform="translate(-608.955 -768.809)"></path><path class="ah" d="M614.271,785.966l13.264-3.715.732,6.816Z" transform="translate(-611.347 -765.697)"></path><path class="l" d="M634.026,786.864l-1.189-5.639,2.648-1.9.4,1.105,1.155-2.222,54.958,10-7.87,3.017h0l-6.274,5.5Z" transform="translate(-619.701 -763.879)"></path><path class="ai" d="M633.228,786.13l-.391-4.9h0l4.207-3.014,54.958,10-7.482,2.836h0l-5.962,5.229" transform="translate(-619.701 -763.879)"></path><path class="ag" d="M640.816,799.766c.091.847-.664,1.328-1.686,1.074a2.681,2.681,0,0,1-2.015-1.992c-.091-.847.664-1.327,1.686-1.074A2.68,2.68,0,0,1,640.816,799.766Z" transform="translate(-621.622 -772.651)"></path><path class="ai" d="M623.256,791.465l-11.381-2.522-2.92,61.051" transform="translate(-608.955 -768.708)"></path><line class="ai" x1="13.692" y1="3.034" transform="translate(20.205 24.065)"></line><path class="ai" d="M699.68,875.376l1.93-66.891-16.669-3.463" transform="translate(-643.145 -775.943)"></path><line class="ai" x1="9.91" y2="2.803" transform="translate(2.92 17.433)"></line><path class="ai" d="M695.577,767.6s-.311-14.113-11.652-15.382c-9.661-1.081-7.993,11.158-7.993,11.158" transform="translate(-639.041 -752.155)"></path><path class="ag" d="M677.022,808.117c.091.847-.663,1.328-1.685,1.074a2.679,2.679,0,0,1-2.015-1.992c-.091-.847.664-1.327,1.686-1.074A2.677,2.677,0,0,1,677.022,808.117Z" transform="translate(-637.913 -776.408)"></path><path class="ai" d="M639.076,800.616s-5.255,20.95,6.719,25.255,13.155-20.993,13.155-20.993" transform="translate(-621.991 -773.96)"></path></g><line class="aj nitro-offscreen" x1="6.074" y2="7.52" transform="translate(433.382 284.937)"></line><line class="aj nitro-offscreen" x1="9.641" y1="0.699" transform="translate(441.08 309.968)"></line><line class="aj nitro-offscreen" x1="9.153" y2="3.109" transform="translate(443.574 294.52)"></line><path class="r nitro-offscreen" d="M443.459,635.067s-11.973-10.718-16.145-21.812L440.859,654.4Z" transform="translate(-88.727 -255.142)"></path><path class="ak nitro-offscreen" d="M471.252,604.149s6.092,20.785,8.56,29.4,9.584,58.179,12.393,70.847,7,33.025,7,33.025" transform="translate(-108.497 -251.044)"></path><path class="ak nitro-offscreen" d="M435.986,654.872,433.2,698.021l.1,60.078" transform="translate(-91.375 -273.867)"></path><path class="al nitro-offscreen" d="M447.972,418.886a7.6,7.6,0,0,0,1.951-9.324" transform="translate(-98.022 -163.49)"></path><ellipse class="n nitro-offscreen" cx="45.675" cy="52.929" rx="45.675" ry="52.929" transform="translate(442.597 287.416) rotate(-23.869)"></ellipse><g transform="translate(446.891 263.656)" class="nitro-offscreen"><path class="am" d="M713.893,502.215,667.5,502.12l10.7,35.8,51.019,4.416,3.551-8.793" transform="translate(-643.69 -468.793)"></path><ellipse class="am" cx="5.635" cy="6.287" rx="5.635" ry="6.287" transform="matrix(0.999, -0.048, 0.048, 0.999, 37.688, 84.996)"></ellipse><path class="am" d="M761.5,606.145c-.133,4.068-3.2,7.212-6.848,7.021s-6.5-3.643-6.369-7.711,3.2-7.212,6.848-7.021S761.636,602.076,761.5,606.145Z" transform="translate(-680.036 -512.124)"></path><line class="am" x1="14.112" y1="0.737" transform="translate(0 0)"></line><line class="am" x1="7.187" y1="24.15" transform="translate(15.92 6.815)"></line><ellipse class="aa" cx="17.148" cy="19.133" rx="17.148" ry="19.133" transform="translate(73.481 19.879) rotate(-2.74)"></ellipse><path class="an" d="M777.072,501.981l6.581,10.789L792.3,496.1" transform="translate(-692.99 -466.084)"></path><line class="am" x2="35.332" y2="1.844" transform="translate(28.754 43.925)"></line><line class="am" x2="42.476" y2="2.217" transform="translate(31.318 57.61)"></line><line class="am" x2="7.655" y2="27.449" transform="translate(38.865 37.924)"></line><line class="am" x2="7.656" y2="27.449" transform="translate(53.389 38.682)"></line></g><path class="ai" d="M895.831,585.484s29.559-1.01,29.559-32.419L927.134,227c0-11.246-9.037-20.177-19.764-19.531" transform="translate(-299.534 -72.546)"></path></g></svg> 